<mxfile host="app.diagrams.net" modified="2023-08-26T05:50:41.225Z" agent="Mozilla/5.0 (Macintosh; Intel Mac OS X 10_15_7) AppleWebKit/537.36 (KHTML, like Gecko) Chrome/114.0.0.0 Safari/537.36" etag="OHB0C-Aghuw8QQjPqX4b" version="21.6.8" type="github">
  <diagram name="Page-1" id="e56a1550-8fbb-45ad-956c-1786394a9013">
    <mxGraphModel dx="1077" dy="1424" grid="1" gridSize="10" guides="1" tooltips="1" connect="1" arrows="1" fold="1" page="1" pageScale="1" pageWidth="1100" pageHeight="850" background="none" math="0" shadow="0">
      <root>
        <mxCell id="0" />
        <mxCell id="1" parent="0" />
        <mxCell id="2e49270ec7c68f3f-8" value="MoveDimension" style="swimlane;html=1;fontStyle=0;childLayout=stackLayout;horizontal=1;startSize=26;fillColor=#e0e0e0;horizontalStack=0;resizeParent=1;resizeLast=0;collapsible=1;marginBottom=0;swimlaneFillColor=#ffffff;align=center;rounded=0;shadow=0;comic=0;labelBackgroundColor=none;strokeWidth=1;fontFamily=Verdana;fontSize=14;swimlaneLine=1;" parent="1" vertex="1">
          <mxGeometry x="810" y="-200" width="160" height="92" as="geometry" />
        </mxCell>
        <mxCell id="2e49270ec7c68f3f-9" value="move_id" style="shape=partialRectangle;top=0;left=0;right=0;bottom=1;html=1;align=left;verticalAlign=middle;fillColor=none;spacingLeft=34;spacingRight=4;whiteSpace=wrap;overflow=hidden;rotatable=0;points=[[0,0.5],[1,0.5]];portConstraint=eastwest;dropTarget=0;fontStyle=5;" parent="2e49270ec7c68f3f-8" vertex="1">
          <mxGeometry y="26" width="160" height="30" as="geometry" />
        </mxCell>
        <mxCell id="2e49270ec7c68f3f-10" value="PK" style="shape=partialRectangle;top=0;left=0;bottom=0;html=1;fillColor=none;align=left;verticalAlign=middle;spacingLeft=4;spacingRight=4;whiteSpace=wrap;overflow=hidden;rotatable=0;points=[];portConstraint=eastwest;part=1;" parent="2e49270ec7c68f3f-9" vertex="1" connectable="0">
          <mxGeometry width="30" height="30" as="geometry" />
        </mxCell>
        <mxCell id="2e49270ec7c68f3f-11" value="move_name" style="shape=partialRectangle;top=0;left=0;right=0;bottom=0;html=1;align=left;verticalAlign=top;fillColor=none;spacingLeft=34;spacingRight=4;whiteSpace=wrap;overflow=hidden;rotatable=0;points=[[0,0.5],[1,0.5]];portConstraint=eastwest;dropTarget=0;" parent="2e49270ec7c68f3f-8" vertex="1">
          <mxGeometry y="56" width="160" height="26" as="geometry" />
        </mxCell>
        <mxCell id="2e49270ec7c68f3f-12" value="" style="shape=partialRectangle;top=0;left=0;bottom=0;html=1;fillColor=none;align=left;verticalAlign=top;spacingLeft=4;spacingRight=4;whiteSpace=wrap;overflow=hidden;rotatable=0;points=[];portConstraint=eastwest;part=1;" parent="2e49270ec7c68f3f-11" vertex="1" connectable="0">
          <mxGeometry width="30" height="26" as="geometry" />
        </mxCell>
        <mxCell id="2e49270ec7c68f3f-17" value="" style="shape=partialRectangle;top=0;left=0;right=0;bottom=0;html=1;align=left;verticalAlign=top;fillColor=none;spacingLeft=34;spacingRight=4;whiteSpace=wrap;overflow=hidden;rotatable=0;points=[[0,0.5],[1,0.5]];portConstraint=eastwest;dropTarget=0;" parent="2e49270ec7c68f3f-8" vertex="1">
          <mxGeometry y="82" width="160" height="10" as="geometry" />
        </mxCell>
        <mxCell id="2e49270ec7c68f3f-18" value="" style="shape=partialRectangle;top=0;left=0;bottom=0;html=1;fillColor=none;align=left;verticalAlign=top;spacingLeft=4;spacingRight=4;whiteSpace=wrap;overflow=hidden;rotatable=0;points=[];portConstraint=eastwest;part=1;" parent="2e49270ec7c68f3f-17" vertex="1" connectable="0">
          <mxGeometry width="30" height="10" as="geometry" />
        </mxCell>
        <mxCell id="2e49270ec7c68f3f-19" value="GameDimensioon" style="swimlane;html=1;fontStyle=0;childLayout=stackLayout;horizontal=1;startSize=26;fillColor=#e0e0e0;horizontalStack=0;resizeParent=1;resizeLast=0;collapsible=1;marginBottom=0;swimlaneFillColor=#ffffff;align=center;rounded=0;shadow=0;comic=0;labelBackgroundColor=none;strokeWidth=1;fontFamily=Verdana;fontSize=14" parent="1" vertex="1">
          <mxGeometry x="160" y="-108" width="160" height="92" as="geometry" />
        </mxCell>
        <mxCell id="2e49270ec7c68f3f-20" value="game_id" style="shape=partialRectangle;top=0;left=0;right=0;bottom=1;html=1;align=left;verticalAlign=middle;fillColor=none;spacingLeft=34;spacingRight=4;whiteSpace=wrap;overflow=hidden;rotatable=0;points=[[0,0.5],[1,0.5]];portConstraint=eastwest;dropTarget=0;fontStyle=5;" parent="2e49270ec7c68f3f-19" vertex="1">
          <mxGeometry y="26" width="160" height="30" as="geometry" />
        </mxCell>
        <mxCell id="2e49270ec7c68f3f-21" value="PK" style="shape=partialRectangle;top=0;left=0;bottom=0;html=1;fillColor=none;align=left;verticalAlign=middle;spacingLeft=4;spacingRight=4;whiteSpace=wrap;overflow=hidden;rotatable=0;points=[];portConstraint=eastwest;part=1;" parent="2e49270ec7c68f3f-20" vertex="1" connectable="0">
          <mxGeometry width="30" height="30" as="geometry" />
        </mxCell>
        <mxCell id="2e49270ec7c68f3f-22" value="game_name" style="shape=partialRectangle;top=0;left=0;right=0;bottom=0;html=1;align=left;verticalAlign=top;fillColor=none;spacingLeft=34;spacingRight=4;whiteSpace=wrap;overflow=hidden;rotatable=0;points=[[0,0.5],[1,0.5]];portConstraint=eastwest;dropTarget=0;" parent="2e49270ec7c68f3f-19" vertex="1">
          <mxGeometry y="56" width="160" height="26" as="geometry" />
        </mxCell>
        <mxCell id="2e49270ec7c68f3f-23" value="" style="shape=partialRectangle;top=0;left=0;bottom=0;html=1;fillColor=none;align=left;verticalAlign=top;spacingLeft=4;spacingRight=4;whiteSpace=wrap;overflow=hidden;rotatable=0;points=[];portConstraint=eastwest;part=1;" parent="2e49270ec7c68f3f-22" vertex="1" connectable="0">
          <mxGeometry width="30" height="26" as="geometry" />
        </mxCell>
        <mxCell id="2e49270ec7c68f3f-28" value="" style="shape=partialRectangle;top=0;left=0;right=0;bottom=0;html=1;align=left;verticalAlign=top;fillColor=none;spacingLeft=34;spacingRight=4;whiteSpace=wrap;overflow=hidden;rotatable=0;points=[[0,0.5],[1,0.5]];portConstraint=eastwest;dropTarget=0;" parent="2e49270ec7c68f3f-19" vertex="1">
          <mxGeometry y="82" width="160" height="10" as="geometry" />
        </mxCell>
        <mxCell id="2e49270ec7c68f3f-29" value="" style="shape=partialRectangle;top=0;left=0;bottom=0;html=1;fillColor=none;align=left;verticalAlign=top;spacingLeft=4;spacingRight=4;whiteSpace=wrap;overflow=hidden;rotatable=0;points=[];portConstraint=eastwest;part=1;" parent="2e49270ec7c68f3f-28" vertex="1" connectable="0">
          <mxGeometry width="30" height="10" as="geometry" />
        </mxCell>
        <mxCell id="2e49270ec7c68f3f-30" value="PokemonDimension" style="swimlane;html=1;fontStyle=0;childLayout=stackLayout;horizontal=1;startSize=26;fillColor=#e0e0e0;horizontalStack=0;resizeParent=1;resizeLast=0;collapsible=1;marginBottom=0;swimlaneFillColor=#ffffff;align=center;rounded=0;shadow=0;comic=0;labelBackgroundColor=none;strokeWidth=1;fontFamily=Verdana;fontSize=14" parent="1" vertex="1">
          <mxGeometry x="790" y="-380" width="160" height="144" as="geometry" />
        </mxCell>
        <mxCell id="2e49270ec7c68f3f-31" value="pokemon_id" style="shape=partialRectangle;top=0;left=0;right=0;bottom=1;html=1;align=left;verticalAlign=middle;fillColor=none;spacingLeft=34;spacingRight=4;whiteSpace=wrap;overflow=hidden;rotatable=0;points=[[0,0.5],[1,0.5]];portConstraint=eastwest;dropTarget=0;fontStyle=5;" parent="2e49270ec7c68f3f-30" vertex="1">
          <mxGeometry y="26" width="160" height="30" as="geometry" />
        </mxCell>
        <mxCell id="2e49270ec7c68f3f-32" value="PK" style="shape=partialRectangle;top=0;left=0;bottom=0;html=1;fillColor=none;align=left;verticalAlign=middle;spacingLeft=4;spacingRight=4;whiteSpace=wrap;overflow=hidden;rotatable=0;points=[];portConstraint=eastwest;part=1;" parent="2e49270ec7c68f3f-31" vertex="1" connectable="0">
          <mxGeometry width="30" height="30" as="geometry" />
        </mxCell>
        <mxCell id="2e49270ec7c68f3f-33" value="pokemon_name" style="shape=partialRectangle;top=0;left=0;right=0;bottom=0;html=1;align=left;verticalAlign=top;fillColor=none;spacingLeft=34;spacingRight=4;whiteSpace=wrap;overflow=hidden;rotatable=0;points=[[0,0.5],[1,0.5]];portConstraint=eastwest;dropTarget=0;" parent="2e49270ec7c68f3f-30" vertex="1">
          <mxGeometry y="56" width="160" height="26" as="geometry" />
        </mxCell>
        <mxCell id="2e49270ec7c68f3f-34" value="" style="shape=partialRectangle;top=0;left=0;bottom=0;html=1;fillColor=none;align=left;verticalAlign=top;spacingLeft=4;spacingRight=4;whiteSpace=wrap;overflow=hidden;rotatable=0;points=[];portConstraint=eastwest;part=1;" parent="2e49270ec7c68f3f-33" vertex="1" connectable="0">
          <mxGeometry width="30" height="26" as="geometry" />
        </mxCell>
        <mxCell id="2e49270ec7c68f3f-37" value="type" style="shape=partialRectangle;top=0;left=0;right=0;bottom=0;html=1;align=left;verticalAlign=top;fillColor=none;spacingLeft=34;spacingRight=4;whiteSpace=wrap;overflow=hidden;rotatable=0;points=[[0,0.5],[1,0.5]];portConstraint=eastwest;dropTarget=0;" parent="2e49270ec7c68f3f-30" vertex="1">
          <mxGeometry y="82" width="160" height="26" as="geometry" />
        </mxCell>
        <mxCell id="2e49270ec7c68f3f-38" value="" style="shape=partialRectangle;top=0;left=0;bottom=0;html=1;fillColor=none;align=left;verticalAlign=top;spacingLeft=4;spacingRight=4;whiteSpace=wrap;overflow=hidden;rotatable=0;points=[];portConstraint=eastwest;part=1;" parent="2e49270ec7c68f3f-37" vertex="1" connectable="0">
          <mxGeometry width="30" height="26" as="geometry" />
        </mxCell>
        <mxCell id="2e49270ec7c68f3f-35" value="evolution_name" style="shape=partialRectangle;top=0;left=0;right=0;bottom=0;html=1;align=left;verticalAlign=top;fillColor=none;spacingLeft=34;spacingRight=4;whiteSpace=wrap;overflow=hidden;rotatable=0;points=[[0,0.5],[1,0.5]];portConstraint=eastwest;dropTarget=0;" parent="2e49270ec7c68f3f-30" vertex="1">
          <mxGeometry y="108" width="160" height="26" as="geometry" />
        </mxCell>
        <mxCell id="2e49270ec7c68f3f-36" value="" style="shape=partialRectangle;top=0;left=0;bottom=0;html=1;fillColor=none;align=left;verticalAlign=top;spacingLeft=4;spacingRight=4;whiteSpace=wrap;overflow=hidden;rotatable=0;points=[];portConstraint=eastwest;part=1;" parent="2e49270ec7c68f3f-35" vertex="1" connectable="0">
          <mxGeometry width="30" height="26" as="geometry" />
        </mxCell>
        <mxCell id="2e49270ec7c68f3f-39" value="" style="shape=partialRectangle;top=0;left=0;right=0;bottom=0;html=1;align=left;verticalAlign=top;fillColor=none;spacingLeft=34;spacingRight=4;whiteSpace=wrap;overflow=hidden;rotatable=0;points=[[0,0.5],[1,0.5]];portConstraint=eastwest;dropTarget=0;" parent="2e49270ec7c68f3f-30" vertex="1">
          <mxGeometry y="134" width="160" height="10" as="geometry" />
        </mxCell>
        <mxCell id="2e49270ec7c68f3f-40" value="" style="shape=partialRectangle;top=0;left=0;bottom=0;html=1;fillColor=none;align=left;verticalAlign=top;spacingLeft=4;spacingRight=4;whiteSpace=wrap;overflow=hidden;rotatable=0;points=[];portConstraint=eastwest;part=1;" parent="2e49270ec7c68f3f-39" vertex="1" connectable="0">
          <mxGeometry width="30" height="10" as="geometry" />
        </mxCell>
        <mxCell id="2e49270ec7c68f3f-41" value="AbilityDimension" style="swimlane;html=1;fontStyle=0;childLayout=stackLayout;horizontal=1;startSize=26;fillColor=#e0e0e0;horizontalStack=0;resizeParent=1;resizeLast=0;collapsible=1;marginBottom=0;swimlaneFillColor=#ffffff;align=center;rounded=0;shadow=0;comic=0;labelBackgroundColor=none;strokeWidth=1;fontFamily=Verdana;fontSize=14" parent="1" vertex="1">
          <mxGeometry x="810" y="32" width="160" height="112" as="geometry" />
        </mxCell>
        <mxCell id="2e49270ec7c68f3f-42" value="ability_id" style="shape=partialRectangle;top=0;left=0;right=0;bottom=0;html=1;align=left;verticalAlign=middle;fillColor=none;spacingLeft=60;spacingRight=4;whiteSpace=wrap;overflow=hidden;rotatable=0;points=[[0,0.5],[1,0.5]];portConstraint=eastwest;dropTarget=0;fontStyle=5;" parent="2e49270ec7c68f3f-41" vertex="1">
          <mxGeometry y="26" width="160" height="30" as="geometry" />
        </mxCell>
        <mxCell id="2e49270ec7c68f3f-43" value="PK" style="shape=partialRectangle;fontStyle=1;top=0;left=0;bottom=0;html=1;fillColor=none;align=left;verticalAlign=middle;spacingLeft=4;spacingRight=4;whiteSpace=wrap;overflow=hidden;rotatable=0;points=[];portConstraint=eastwest;part=1;" parent="2e49270ec7c68f3f-42" vertex="1" connectable="0">
          <mxGeometry width="56" height="30" as="geometry" />
        </mxCell>
        <mxCell id="2e49270ec7c68f3f-44" value="" style="shape=partialRectangle;top=0;left=0;right=0;bottom=1;html=1;align=left;verticalAlign=middle;fillColor=none;spacingLeft=60;spacingRight=4;whiteSpace=wrap;overflow=hidden;rotatable=0;points=[[0,0.5],[1,0.5]];portConstraint=eastwest;dropTarget=0;fontStyle=5;" parent="2e49270ec7c68f3f-41" vertex="1">
          <mxGeometry y="56" width="160" height="30" as="geometry" />
        </mxCell>
        <mxCell id="2e49270ec7c68f3f-45" value="" style="shape=partialRectangle;fontStyle=1;top=0;left=0;bottom=0;html=1;fillColor=none;align=left;verticalAlign=middle;spacingLeft=4;spacingRight=4;whiteSpace=wrap;overflow=hidden;rotatable=0;points=[];portConstraint=eastwest;part=1;" parent="2e49270ec7c68f3f-44" vertex="1" connectable="0">
          <mxGeometry width="56" height="30" as="geometry" />
        </mxCell>
        <mxCell id="2e49270ec7c68f3f-46" value="ability_name" style="shape=partialRectangle;top=0;left=0;right=0;bottom=0;html=1;align=left;verticalAlign=top;fillColor=none;spacingLeft=60;spacingRight=4;whiteSpace=wrap;overflow=hidden;rotatable=0;points=[[0,0.5],[1,0.5]];portConstraint=eastwest;dropTarget=0;" parent="2e49270ec7c68f3f-41" vertex="1">
          <mxGeometry y="86" width="160" height="26" as="geometry" />
        </mxCell>
        <mxCell id="2e49270ec7c68f3f-47" value="" style="shape=partialRectangle;top=0;left=0;bottom=0;html=1;fillColor=none;align=left;verticalAlign=top;spacingLeft=4;spacingRight=4;whiteSpace=wrap;overflow=hidden;rotatable=0;points=[];portConstraint=eastwest;part=1;" parent="2e49270ec7c68f3f-46" vertex="1" connectable="0">
          <mxGeometry width="56" height="26" as="geometry" />
        </mxCell>
        <mxCell id="2e49270ec7c68f3f-56" value="" style="edgeStyle=orthogonalEdgeStyle;html=1;endArrow=ERzeroToMany;endFill=1;startArrow=ERzeroToMany;labelBackgroundColor=none;fontFamily=Verdana;fontSize=14;entryX=1;entryY=0.742;entryDx=0;entryDy=0;entryPerimeter=0;" parent="1" source="2e49270ec7c68f3f-89" target="2e49270ec7c68f3f-22" edge="1">
          <mxGeometry width="100" height="100" relative="1" as="geometry">
            <mxPoint x="400" y="100" as="sourcePoint" />
            <mxPoint x="320" y="13" as="targetPoint" />
            <Array as="points">
              <mxPoint x="320" y="50" />
            </Array>
          </mxGeometry>
        </mxCell>
        <mxCell id="2e49270ec7c68f3f-57" value="" style="edgeStyle=orthogonalEdgeStyle;html=1;endArrow=ERmany;startArrow=ERmany;labelBackgroundColor=none;fontFamily=Verdana;fontSize=14;exitX=0;exitY=0.383;exitPerimeter=0;" parent="1" source="2e49270ec7c68f3f-11" edge="1">
          <mxGeometry width="100" height="100" relative="1" as="geometry">
            <mxPoint x="560" y="220" as="sourcePoint" />
            <mxPoint x="640" y="10" as="targetPoint" />
            <Array as="points">
              <mxPoint x="810" y="10" />
            </Array>
          </mxGeometry>
        </mxCell>
        <mxCell id="2e49270ec7c68f3f-60" value="" style="edgeStyle=entityRelationEdgeStyle;html=1;endArrow=ERzeroToOne;startArrow=ERmandOne;labelBackgroundColor=none;fontFamily=Verdana;fontSize=14;exitX=1;exitY=0.5;exitDx=0;exitDy=0;" parent="1" target="2e49270ec7c68f3f-31" edge="1">
          <mxGeometry width="100" height="100" relative="1" as="geometry">
            <mxPoint x="640" y="82" as="sourcePoint" />
            <mxPoint x="770" y="-200" as="targetPoint" />
          </mxGeometry>
        </mxCell>
        <mxCell id="2e49270ec7c68f3f-63" value="" style="edgeStyle=entityRelationEdgeStyle;html=1;endArrow=ERzeroToMany;startArrow=ERzeroToOne;labelBackgroundColor=none;fontFamily=Verdana;fontSize=14;entryX=0;entryY=0.5;" parent="1" target="2e49270ec7c68f3f-42" edge="1">
          <mxGeometry width="100" height="100" relative="1" as="geometry">
            <mxPoint x="640" y="30" as="sourcePoint" />
            <mxPoint x="950" y="500" as="targetPoint" />
          </mxGeometry>
        </mxCell>
        <mxCell id="2e49270ec7c68f3f-80" value="Fact" style="swimlane;html=1;fontStyle=0;childLayout=stackLayout;horizontal=1;startSize=26;fillColor=#e0e0e0;horizontalStack=0;resizeParent=1;resizeLast=0;collapsible=1;marginBottom=0;swimlaneFillColor=#ffffff;align=center;rounded=0;shadow=0;comic=0;labelBackgroundColor=none;strokeWidth=1;fontFamily=Verdana;fontSize=14" parent="1" vertex="1">
          <mxGeometry x="480" y="-220" width="160" height="388" as="geometry" />
        </mxCell>
        <mxCell id="2e49270ec7c68f3f-81" value="id" style="shape=partialRectangle;top=0;left=0;right=0;bottom=1;html=1;align=left;verticalAlign=middle;fillColor=none;spacingLeft=34;spacingRight=4;whiteSpace=wrap;overflow=hidden;rotatable=0;points=[[0,0.5],[1,0.5]];portConstraint=eastwest;dropTarget=0;fontStyle=5;" parent="2e49270ec7c68f3f-80" vertex="1">
          <mxGeometry y="26" width="160" height="54" as="geometry" />
        </mxCell>
        <mxCell id="2e49270ec7c68f3f-82" value="PK&lt;br&gt;" style="shape=partialRectangle;top=0;left=0;bottom=0;html=1;fillColor=none;align=left;verticalAlign=middle;spacingLeft=4;spacingRight=4;whiteSpace=wrap;overflow=hidden;rotatable=0;points=[];portConstraint=eastwest;part=1;" parent="2e49270ec7c68f3f-81" vertex="1" connectable="0">
          <mxGeometry width="30" height="54" as="geometry" />
        </mxCell>
        <mxCell id="2e49270ec7c68f3f-83" value="weight" style="shape=partialRectangle;top=0;left=0;right=0;bottom=0;html=1;align=left;verticalAlign=top;fillColor=none;spacingLeft=34;spacingRight=4;whiteSpace=wrap;overflow=hidden;rotatable=0;points=[[0,0.5],[1,0.5]];portConstraint=eastwest;dropTarget=0;" parent="2e49270ec7c68f3f-80" vertex="1">
          <mxGeometry y="80" width="160" height="26" as="geometry" />
        </mxCell>
        <mxCell id="2e49270ec7c68f3f-84" value="" style="shape=partialRectangle;top=0;left=0;bottom=0;html=1;fillColor=none;align=left;verticalAlign=top;spacingLeft=4;spacingRight=4;whiteSpace=wrap;overflow=hidden;rotatable=0;points=[];portConstraint=eastwest;part=1;" parent="2e49270ec7c68f3f-83" vertex="1" connectable="0">
          <mxGeometry width="30" height="26" as="geometry" />
        </mxCell>
        <mxCell id="2e49270ec7c68f3f-85" value="height" style="shape=partialRectangle;top=0;left=0;right=0;bottom=0;html=1;align=left;verticalAlign=top;fillColor=none;spacingLeft=34;spacingRight=4;whiteSpace=wrap;overflow=hidden;rotatable=0;points=[[0,0.5],[1,0.5]];portConstraint=eastwest;dropTarget=0;" parent="2e49270ec7c68f3f-80" vertex="1">
          <mxGeometry y="106" width="160" height="26" as="geometry" />
        </mxCell>
        <mxCell id="2e49270ec7c68f3f-86" value="" style="shape=partialRectangle;top=0;left=0;bottom=0;html=1;fillColor=none;align=left;verticalAlign=top;spacingLeft=4;spacingRight=4;whiteSpace=wrap;overflow=hidden;rotatable=0;points=[];portConstraint=eastwest;part=1;" parent="2e49270ec7c68f3f-85" vertex="1" connectable="0">
          <mxGeometry width="30" height="26" as="geometry" />
        </mxCell>
        <mxCell id="2e49270ec7c68f3f-87" value="hp" style="shape=partialRectangle;top=0;left=0;right=0;bottom=0;html=1;align=left;verticalAlign=top;fillColor=none;spacingLeft=34;spacingRight=4;whiteSpace=wrap;overflow=hidden;rotatable=0;points=[[0,0.5],[1,0.5]];portConstraint=eastwest;dropTarget=0;" parent="2e49270ec7c68f3f-80" vertex="1">
          <mxGeometry y="132" width="160" height="22" as="geometry" />
        </mxCell>
        <mxCell id="2e49270ec7c68f3f-88" value="" style="shape=partialRectangle;top=0;left=0;bottom=0;html=1;fillColor=none;align=left;verticalAlign=top;spacingLeft=4;spacingRight=4;whiteSpace=wrap;overflow=hidden;rotatable=0;points=[];portConstraint=eastwest;part=1;" parent="2e49270ec7c68f3f-87" vertex="1" connectable="0">
          <mxGeometry width="30" height="22" as="geometry" />
        </mxCell>
        <mxCell id="C7m2e02QreDOLd1yrOuz-4" value="attack" style="shape=partialRectangle;top=0;left=0;right=0;bottom=0;html=1;align=left;verticalAlign=top;fillColor=none;spacingLeft=34;spacingRight=4;whiteSpace=wrap;overflow=hidden;rotatable=0;points=[[0,0.5],[1,0.5]];portConstraint=eastwest;dropTarget=0;" vertex="1" parent="2e49270ec7c68f3f-80">
          <mxGeometry y="154" width="160" height="22" as="geometry" />
        </mxCell>
        <mxCell id="C7m2e02QreDOLd1yrOuz-5" value="" style="shape=partialRectangle;top=0;left=0;bottom=0;html=1;fillColor=none;align=left;verticalAlign=top;spacingLeft=4;spacingRight=4;whiteSpace=wrap;overflow=hidden;rotatable=0;points=[];portConstraint=eastwest;part=1;" vertex="1" connectable="0" parent="C7m2e02QreDOLd1yrOuz-4">
          <mxGeometry width="30" height="22" as="geometry" />
        </mxCell>
        <mxCell id="C7m2e02QreDOLd1yrOuz-6" value="defense" style="shape=partialRectangle;top=0;left=0;right=0;bottom=0;html=1;align=left;verticalAlign=top;fillColor=none;spacingLeft=34;spacingRight=4;whiteSpace=wrap;overflow=hidden;rotatable=0;points=[[0,0.5],[1,0.5]];portConstraint=eastwest;dropTarget=0;" vertex="1" parent="2e49270ec7c68f3f-80">
          <mxGeometry y="176" width="160" height="22" as="geometry" />
        </mxCell>
        <mxCell id="C7m2e02QreDOLd1yrOuz-7" value="" style="shape=partialRectangle;top=0;left=0;bottom=0;html=1;fillColor=none;align=left;verticalAlign=top;spacingLeft=4;spacingRight=4;whiteSpace=wrap;overflow=hidden;rotatable=0;points=[];portConstraint=eastwest;part=1;" vertex="1" connectable="0" parent="C7m2e02QreDOLd1yrOuz-6">
          <mxGeometry width="30" height="22" as="geometry" />
        </mxCell>
        <mxCell id="2e49270ec7c68f3f-89" value="special-attack&lt;br&gt;special-defense&lt;br&gt;speed&lt;br&gt;move_id&lt;br&gt;ability_id&lt;br&gt;game_id&lt;br&gt;pokemon_id" style="shape=partialRectangle;top=0;left=0;right=0;bottom=0;html=1;align=left;verticalAlign=top;fillColor=none;spacingLeft=34;spacingRight=4;whiteSpace=wrap;overflow=hidden;rotatable=0;points=[[0,0.5],[1,0.5]];portConstraint=eastwest;dropTarget=0;" parent="2e49270ec7c68f3f-80" vertex="1">
          <mxGeometry y="198" width="160" height="190" as="geometry" />
        </mxCell>
        <mxCell id="2e49270ec7c68f3f-90" value="" style="shape=partialRectangle;top=0;left=0;bottom=0;html=1;fillColor=none;align=left;verticalAlign=top;spacingLeft=4;spacingRight=4;whiteSpace=wrap;overflow=hidden;rotatable=0;points=[];portConstraint=eastwest;part=1;" parent="2e49270ec7c68f3f-89" vertex="1" connectable="0">
          <mxGeometry width="30" height="190" as="geometry" />
        </mxCell>
      </root>
    </mxGraphModel>
  </diagram>
</mxfile>
